# Blender v2.76 (sub 0) OBJ File: ''
# www.blender.org
o Plane
v 5.617769 -24.099659 231.196945
v -14.515304 -23.820215 231.196945
v 17.068268 1.374807 223.543762
v -25.711113 1.968580 223.543762
v 5.488909 -33.383625 233.969315
v -14.644164 -33.104179 233.969315
v 16.717295 -23.909420 230.271774
v -26.066889 -23.659880 231.196945
v -4.241445 3.548082 222.983215
vn -0.004000 -0.286100 -0.958200
vn -0.076000 -0.255400 -0.963800
s off
f 1//1 2//1 3//1
f 1//1 5//1 6//1
f 3//1 4//1 9//1
f 4//1 3//1 2//1
f 7//2 1//2 3//2
f 2//1 8//1 4//1
f 2//1 1//1 6//1
