# Blender v2.76 (sub 0) OBJ File: ''
# www.blender.org
o Cube_Cube.001_Cube_Cube.001_Cube_Cube.001_Cube_Cube.000
v 75.898384 -0.940384 -2.612335
v 62.548771 73.788452 -8.091843
v 62.548763 73.788467 -94.775421
v 73.470261 41.558273 -94.775436
v 75.898376 0.484535 -92.304886
v 73.470268 41.558258 -5.660873
v 75.898376 -36.789467 -84.893173
v 75.898384 -42.489059 0.050934
v 74.684326 20.308937 -4.136597
v 75.898376 -18.152466 -88.599030
v 74.684319 21.021400 -93.540161
v 75.898376 -39.639259 -42.421112
v 68.009514 57.673370 -94.775436
v 62.548763 73.788452 -51.433640
v 68.009521 57.673355 -6.876373
v 75.898384 -21.714722 -1.280701
vt 0.080219 0.843750
vt 1.006390 1.000163
vt 0.753554 0.630607
vt 0.500718 0.261052
vt 0.080219 0.750000
vt 0.312380 0.277631
vt 0.124041 0.294210
vt 0.107608 0.402631
vt 0.091175 0.511052
vt 0.085697 0.630526
vt 0.080219 0.937500
vt 0.268945 0.607305
vt 0.071360 0.701055
vt 0.062500 0.464610
vt 0.475390 0.750000
vt 0.740890 0.875081
vn 0.993800 0.105500 0.035700
vn 0.982400 0.186600 -0.012900
vn 0.998400 0.057200 0.000700
vn 0.999600 0.027000 0.000400
vn 0.999500 0.032200 0.000300
vn 1.000000 0.000000 -0.000000
vn 0.979600 0.145600 0.138600
vn 0.962600 0.270800 -0.008300
vn 0.947100 0.320900 0.000000
s 1
f 11/1/1 6/2/2 9/3/3
f 9/3/3 1/4/4 5/5/5
f 16/6/6 8/7/6 12/8/6
f 12/8/6 7/9/6 10/10/6
f 10/10/6 5/5/5 12/8/6
f 11/1/1 4/11/7 14/12/8
f 13/13/9 3/14/9 14/12/8
f 14/12/8 2/15/9 15/16/9
f 15/16/9 6/2/2 14/12/8
f 1/4/4 16/6/6 12/8/6
f 12/8/6 5/5/5 1/4/4
f 4/11/7 13/13/9 14/12/8
f 14/12/8 6/2/2 11/1/1
f 9/3/3 5/5/5 11/1/1
