# Blender v2.76 (sub 0) OBJ File: ''
# www.blender.org
o Cylinder.003_Cylinder.001
v -0.000001 112.674469 -12.472558
v -2.701173 112.674469 -25.102179
v -7.379730 112.674469 -3.226922
v 10.080992 112.674469 -9.088350
v 37.092880 112.675003 117.208755
v 37.092880 107.350967 117.208755
v -7.379730 107.350449 -3.226921
v 19.632072 107.350967 123.070175
v 19.632072 112.675003 123.070175
v 10.080992 107.350449 -9.088349
v 83.878822 107.349854 -101.544258
v 83.878822 112.673882 -101.544258
v -2.701173 107.350449 -25.102180
v 71.096664 112.673859 -117.558090
v 71.096664 107.349831 -117.558090
v -108.189453 112.674385 -37.068119
v -108.189453 107.350365 -37.068119
v -103.510818 107.350365 -58.943375
v -103.510818 112.674385 -58.943375
v -326.936523 109.213699 -110.500076
v -322.257935 110.810944 -132.375458
v -326.936523 110.810944 -110.500076
v -322.257935 109.213699 -132.375458
v 95.705864 109.214417 391.260925
v 78.245148 110.811584 397.122345
v 95.705864 110.811584 391.260925
v 78.245148 109.214417 397.122345
v 231.230576 109.213165 -318.178162
v 244.012741 109.213188 -302.164368
v 244.012741 110.810440 -302.164368
v 231.230576 110.810425 -318.178162
v -370.403290 110.810944 -125.091621
v -370.403290 109.213699 -125.091621
v -369.321411 109.213699 -130.149689
v -369.321411 110.810944 -130.149689
v 264.310181 109.213165 -356.464752
v 264.310181 110.810425 -356.464752
v 263.050354 110.810425 -358.042938
v 263.050354 109.213165 -358.042938
v 107.352760 110.811577 445.717133
v 107.352760 109.214409 445.717133
v 105.926086 109.214409 446.196014
v 105.926086 110.811577 446.196014
v -7.379730 98.653496 -3.226922
v 10.080992 98.653496 -9.088348
v -2.701173 98.653496 -25.102180
v -48.793686 111.272240 -27.416231
v -48.793686 108.613281 -27.416233
v -0.135091 91.796249 -13.103983
v -0.369001 91.796249 -12.010265
v -48.220566 108.613281 -30.095957
v -48.220566 111.272240 -30.095955
v 0.504089 91.796249 -12.303315
v 14.668117 108.270515 47.737724
v 14.668117 111.280487 47.737724
v 11.326864 108.270515 48.859413
v 11.326864 111.280487 48.859413
v 34.181728 108.114433 -58.623726
v 36.837715 108.114433 -55.296234
v 34.181728 111.436562 -58.623726
v 36.837715 111.436562 -55.296234
v -0.000001 91.796249 -12.472559
vt 0.500000 0.444692
vt 0.511897 0.388686
vt 0.532502 0.485691
vt 0.455601 0.459698
vt 0.468050 0.155483
vt 0.912042 0.155487
vt 0.912042 0.124514
vt 0.488656 0.155483
vt 0.488656 0.124511
vt 0.932648 0.124514
vt 0.413535 1.045744
vt 0.336634 1.019752
vt 0.455601 0.124511
vt 0.130576 0.124507
vt 0.130576 0.155480
vt 0.511897 0.124511
vt 0.511897 0.155483
vt 0.186872 0.155480
vt 0.130576 0.049711
vt 0.186872 -0.021301
vt 0.532502 0.155483
vt 0.976494 0.155483
vt 0.976494 0.124510
vt 0.955888 0.124510
vt 0.955888 0.155483
vt 0.955888 0.238620
vt 0.976494 0.335624
vt 0.163122 0.238620
vt 0.183728 0.335624
vt 1.147146 0.009996
vt 1.126541 -0.087008
vt 0.163122 0.124510
vt 1.126541 0.124510
vt 1.126541 0.155483
vt 0.183728 0.155483
vt 1.147146 0.155483
vt 1.147146 0.124510
vt 0.413535 0.045744
vt 0.336634 0.019752
vt 0.078487 1.235014
vt 0.155388 1.261006
vt 0.139881 0.124514
vt 1.103300 0.124514
vt 1.103300 0.155487
vt 0.119276 0.155487
vt 1.082694 0.155487
vt 1.082694 0.124514
vt -0.518399 -0.910935
vt -0.574695 -0.839923
vt 0.186872 0.978699
vt 0.130576 1.049711
vt -0.574695 0.160077
vt -0.518399 0.155480
vt -0.518399 0.124507
vt 0.143026 0.124507
vt -0.562246 0.124507
vt -0.562246 0.155480
vt 0.354380 0.155483
vt 0.545819 0.155483
vt 0.545819 0.124510
vt 0.333774 0.124510
vt 0.541054 0.124510
vt 0.541054 0.155483
vt 0.354380 0.009996
vt 0.333774 -0.087008
vt 0.541054 -0.077138
vt 0.354380 1.009996
vt 0.545819 0.945292
vt 0.541054 0.922862
vt 0.853012 0.155483
vt 0.835231 0.155483
vt 0.835231 0.124510
vt 0.230521 0.124507
vt 0.039630 0.124507
vt 0.039630 0.155480
vt 0.174225 0.155480
vt 0.034082 0.155480
vt 0.034082 0.124507
vt 0.274367 0.089065
vt 0.218071 0.160077
vt 0.128676 -0.080713
vt 0.134225 -0.087711
vt 0.134225 0.155480
vt 0.128676 0.155480
vt 0.128676 0.124507
vt 0.289928 0.155487
vt 0.481366 0.155487
vt 0.481366 0.124514
vt 0.310534 0.124514
vt 0.483050 0.124514
vt 0.483050 0.155487
vt 0.871253 0.235014
vt 0.948155 0.261006
vt 0.826241 0.478619
vt 0.078487 0.235014
vt 0.027191 0.476495
vt 0.033474 0.478619
vt 0.826241 0.124514
vt 0.819957 0.124514
vt 0.819957 0.155487
vt 0.532502 0.124511
vt 0.532502 0.073916
vt 0.455601 0.073916
vt 0.468050 0.124511
vt 0.468050 0.073916
vt 0.411754 0.073916
vt 0.411754 0.124511
vt 0.488656 0.073916
vt 0.714900 0.378425
vt 0.500595 0.441891
vt 0.501625 0.446742
vt 0.712376 0.366542
vt 0.394199 0.147326
vt 0.394199 0.131858
vt 0.403619 0.131858
vt 0.497780 0.445442
vt 0.435398 0.711689
vt 0.450114 0.716663
vt 0.450114 0.147374
vt 0.450114 0.129864
vt 0.435398 0.129864
vt 0.349455 0.240038
vt 0.337757 0.254794
vt 0.305609 0.148282
vt 0.305609 0.128956
vt 0.293911 0.128956
vt 0.932648 0.155487
vt 0.455601 0.155483
vt 0.186872 0.124507
vt 0.163122 0.155483
vt 0.183728 0.124510
vt 0.139881 0.155487
vt 0.119276 0.124514
vt -0.518399 0.089065
vt 0.143026 0.155480
vt 0.354380 0.124510
vt 0.333774 0.155483
vt 0.545819 -0.054708
vt 0.333774 0.912992
vt 0.853012 0.124510
vt 0.230521 0.155480
vt 0.174225 0.124507
vt 0.134225 0.124507
vt 0.289928 0.124514
vt 0.310534 0.155487
vt 0.819957 0.476495
vt 0.155388 0.261006
vt 0.826241 0.155487
vt 0.403619 0.147326
vt 0.435398 0.147374
vt 0.293911 0.148282
vn 0.000000 1.000000 0.000000
vn 0.977900 0.000000 -0.209100
vn -0.977900 0.000000 0.209100
vn 0.000000 -1.000000 0.000000
vn 0.781600 0.000000 0.623800
vn -0.781600 0.000000 -0.623800
vn -0.318200 0.000000 0.948000
vn 0.318200 0.000000 -0.948000
vn -0.007900 -1.000000 -0.001700
vn -0.007900 1.000000 -0.001700
vn 0.002100 -1.000000 0.006300
vn 0.002100 1.000000 0.006300
vn 0.005800 -1.000000 -0.004600
vn 0.005800 1.000000 -0.004600
vn -0.047200 0.000000 -0.998900
vn -0.977900 0.000000 -0.209200
vn 0.936700 0.000000 0.350100
vn 0.781500 0.000000 -0.623900
vn -0.871000 0.000000 0.491300
vn 0.318200 0.000000 0.948000
vn 0.781600 -0.000000 -0.623800
vn -0.977900 0.000000 -0.209100
vn -0.412000 -0.836700 0.360800
vn -0.504400 -0.000000 0.863500
vn -0.520600 -0.107700 0.847000
vn -0.308500 -0.948900 -0.066000
vn -0.134600 -0.861100 -0.490200
vn -0.139400 -0.872300 -0.468700
vn 0.084100 -0.112200 -0.990100
vn 0.261000 0.963700 0.055800
vn 0.082400 -0.965900 0.245600
vn 0.575600 -0.812600 0.091100
vn 0.996800 0.000000 -0.080500
vn 0.994700 -0.078400 -0.067000
vn -0.452300 -0.833900 0.316400
vn -0.435000 -0.844600 0.312200
vn -0.933300 -0.080300 0.350000
vn -0.070800 0.974900 -0.210900
vn 0.318300 0.000000 0.948000
vn 0.221500 -0.959000 -0.176800
vn 0.561300 -0.812300 0.158700
vn 0.543300 -0.826900 0.145300
vn 0.869800 -0.089800 0.485200
vn -0.208500 -0.857000 -0.471300
vn -0.672600 0.000000 -0.740000
vn -0.656100 -0.095000 -0.748700
vn -0.194500 0.968500 0.155300
vn -0.403400 -0.849100 0.341000
vn 0.109100 0.000000 -0.994000
vn 0.558400 -0.824200 0.094400
vn -0.941100 0.000000 0.338000
vn 0.865400 0.000000 0.501100
vn -0.191300 -0.869200 -0.455900
s 1
f 1/1/1 2/2/1 3/3/1
f 1/1/1 4/4/1 2/2/1
f 1/1/1 3/3/1 4/4/1
f 4/5/2 5/6/2 6/7/2
f 3/8/3 7/9/3 8/10/3
f 3/3/1 9/11/1 5/12/1
f 7/3/4 10/4/4 6/12/4
f 10/13/5 11/14/5 12/15/5
f 13/16/6 2/17/6 14/18/6
f 2/2/1 4/4/1 12/19/1
f 13/2/4 15/20/4 11/19/4
f 3/21/7 16/22/7 17/23/7
f 13/16/8 18/24/8 19/25/8
f 2/2/1 19/26/1 16/27/1
f 13/2/4 7/3/4 17/27/4
f 18/28/9 17/29/9 20/30/9
f 19/28/10 21/31/10 22/30/10
f 18/32/8 23/33/8 21/34/8
f 16/35/7 22/36/7 20/37/7
f 8/38/11 6/39/11 24/40/11
f 9/38/12 25/41/12 26/40/12
f 8/42/3 27/43/3 25/44/3
f 5/45/2 26/46/2 24/47/2
f 15/20/13 28/48/13 29/49/13
f 14/50/14 12/51/14 30/52/14
f 14/18/6 31/53/6 28/54/6
f 11/55/5 29/56/5 30/57/5
f 22/58/7 32/59/7 33/60/7
f 23/61/15 34/62/15 35/63/15
f 22/64/1 21/65/1 35/66/1
f 20/67/4 33/68/4 34/69/4
f 32/70/16 35/71/16 34/72/16
f 29/73/17 36/74/17 37/75/17
f 31/76/6 38/77/6 39/78/6
f 31/79/1 30/80/1 37/81/1
f 28/79/4 39/82/4 36/81/4
f 38/83/18 37/84/18 36/85/18
f 26/86/2 40/87/2 41/88/2
f 27/89/19 42/90/19 43/91/19
f 26/92/1 25/93/1 43/94/1
f 24/95/4 41/96/4 42/97/4
f 42/98/20 41/99/20 40/100/20
f 7/101/20 44/102/20 45/103/20
f 10/104/21 45/105/21 46/106/21
f 13/107/22 46/106/22 44/108/22
f 44/3/23 47/109/24 48/109/25
f 49/110/26 50/111/26 48/109/26
f 46/2/27 49/110/28 51/112/29
f 46/2/30 52/112/30 47/109/30
f 52/113/22 51/114/22 48/115/22
f 50/111/31 53/116/31 54/117/31
f 45/4/32 55/117/33 54/117/34
f 44/3/35 50/111/36 56/118/37
f 44/3/38 57/118/38 55/117/38
f 57/119/39 56/120/39 54/121/39
f 49/110/40 58/122/40 59/123/40
f 45/4/41 53/116/42 59/123/43
f 46/2/44 60/122/45 58/122/46
f 46/2/47 45/4/47 61/123/47
f 61/124/21 59/125/21 58/126/21
f 62/1/4 50/111/4 49/110/4
f 62/1/4 49/110/4 53/116/4
f 53/116/4 50/111/4 62/1/4
f 10/104/2 4/5/2 6/7/2
f 9/127/3 3/8/3 8/10/3
f 4/4/1 3/3/1 5/12/1
f 8/11/4 7/3/4 6/12/4
f 4/128/5 10/13/5 12/15/5
f 15/129/6 13/16/6 14/18/6
f 14/20/1 2/2/1 12/19/1
f 10/4/4 13/2/4 11/19/4
f 7/101/7 3/21/7 17/23/7
f 2/17/8 13/16/8 19/25/8
f 3/3/1 2/2/1 16/27/1
f 18/26/4 13/2/4 17/27/4
f 23/31/9 18/28/9 20/30/9
f 16/29/10 19/28/10 22/30/10
f 19/130/8 18/32/8 21/34/8
f 17/131/7 16/35/7 20/37/7
f 27/41/11 8/38/11 24/40/11
f 5/39/12 9/38/12 26/40/12
f 9/132/3 8/42/3 25/44/3
f 6/133/2 5/45/2 24/47/2
f 11/19/13 15/20/13 29/49/13
f 31/134/14 14/50/14 30/52/14
f 15/129/6 14/18/6 28/54/6
f 12/135/5 11/55/5 30/57/5
f 20/136/7 22/58/7 33/60/7
f 21/137/15 23/61/15 35/63/15
f 32/138/1 22/64/1 35/66/1
f 23/139/4 20/67/4 34/69/4
f 33/140/16 32/70/16 34/72/16
f 30/141/17 29/73/17 37/75/17
f 28/142/6 31/76/6 39/78/6
f 38/82/1 31/79/1 37/81/1
f 29/80/4 28/79/4 36/81/4
f 39/143/18 38/83/18 36/85/18
f 24/144/2 26/86/2 41/88/2
f 25/145/19 27/89/19 43/91/19
f 40/146/1 26/92/1 43/94/1
f 27/147/4 24/95/4 42/97/4
f 43/148/20 42/98/20 40/100/20
f 10/13/20 7/101/20 45/103/20
f 13/107/21 10/104/21 46/106/21
f 7/9/22 13/107/22 44/108/22
f 50/111/48 44/3/23 48/109/25
f 51/112/26 49/110/26 48/109/26
f 52/112/49 46/2/27 51/112/29
f 44/3/30 46/2/30 47/109/30
f 47/149/22 52/113/22 48/115/22
f 56/118/31 50/111/31 54/117/31
f 53/116/50 45/4/32 54/117/34
f 57/118/51 44/3/35 56/118/37
f 45/4/38 44/3/38 55/117/38
f 55/150/39 57/119/39 54/121/39
f 53/116/40 49/110/40 59/123/40
f 61/123/52 45/4/41 59/123/43
f 49/110/53 46/2/44 58/122/46
f 60/122/47 46/2/47 61/123/47
f 60/151/21 61/124/21 58/126/21
