# Blender v2.76 (sub 0) OBJ File: ''
# www.blender.org
o Cube_Cube.001_Cube_Cube.000_Cube_Cube.001_Cube_Cube.000
v -45.719604 43.004860 201.902069
v -0.719604 43.004860 202.281479
v 44.280396 43.004860 201.902069
v 44.280411 0.031257 246.309357
v -45.719589 0.031257 246.309357
v -0.719589 0.031256 283.283783
vt 0.250000 0.500000
vt 0.250326 0.496277
vt 0.747174 0.496277
vt 0.751984 0.998419
vt 0.500000 0.500000
vt 0.500000 0.497312
vn -0.000000 0.883400 0.468700
vn 0.259300 0.810200 0.525800
vn 0.000000 0.792600 0.609700
vn -0.005900 0.718600 0.695400
vn -0.259300 0.810200 0.525800
vn 0.005900 0.718600 0.695400
s 1
f 6/1/1 4/2/2 2/3/3
f 2/3/3 1/4/4 5/5/5
f 5/5/5 6/1/1 2/3/3
f 4/2/2 3/6/6 2/3/3
